<?xml version="1.0" standalone="no"?>
<!DOCTYPE svg PUBLIC "-//W3C//DTD SVG 20010904//EN"
 "http://www.w3.org/TR/2001/REC-SVG-20010904/DTD/svg10.dtd">
<svg version="1.0" xmlns="http://www.w3.org/2000/svg"
 width="512.000000pt" height="512.000000pt" viewBox="0 0 512.000000 512.000000"
 preserveAspectRatio="xMidYMid meet">

<g transform="translate(0.000000,512.000000) scale(0.100000,-0.100000)"
fill="#000000" stroke="none">
<path d="M692 5109 c-322 -41 -586 -281 -669 -605 -17 -65 -18 -179 -18 -1944
0 -1765 1 -1879 18 -1944 47 -186 161 -355 313 -466 62 -45 177 -99 263 -123
75 -21 83 -22 1191 -25 1222 -3 1172 -5 1220 55 47 60 34 154 -27 200 l-36 28
-1131 5 c-1018 5 -1135 7 -1172 21 -180 73 -287 186 -338 358 -14 49 -16 231
-16 1891 0 1660 2 1842 16 1891 54 181 182 309 363 363 43 12 100 16 263 16
231 0 255 5 301 59 39 46 39 126 0 172 -46 54 -71 59 -285 58 -106 -1 -221 -5
-256 -10z"/>
<path d="M2085 5101 c-100 -46 -112 -179 -21 -244 l31 -22 1170 -5 c1055 -5
1174 -7 1211 -21 180 -73 287 -186 338 -358 14 -49 16 -231 16 -1891 0 -1660
-2 -1842 -16 -1891 -51 -172 -161 -288 -338 -357 -32 -13 -98 -17 -308 -21
-249 -6 -268 -7 -294 -27 -48 -36 -66 -67 -66 -119 0 -52 18 -84 66 -119 26
-20 40 -21 299 -20 243 1 280 3 348 22 286 78 502 299 576 588 17 65 18 179
18 1944 0 1765 -1 1879 -18 1944 -47 186 -161 355 -313 466 -62 45 -177 99
-263 123 -76 22 -81 22 -1236 24 -1112 3 -1162 2 -1200 -16z"/>
<path d="M1288 4111 c-157 -52 -275 -175 -318 -333 -7 -29 -11 -83 -8 -141 3
-81 8 -102 40 -167 85 -178 230 -270 427 -270 215 0 375 122 446 339 24 72 17
213 -14 293 -45 117 -152 224 -268 269 -81 31 -226 36 -305 10z m223 -287 c37
-19 76 -68 89 -112 12 -46 12 -48 -1 -95 -24 -87 -116 -146 -206 -132 -88 13
-165 121 -149 208 23 121 157 187 267 131z"/>
<path d="M3248 3089 c-100 -8 -232 -41 -290 -70 l-40 -21 -27 25 c-49 46 -55
47 -368 47 -278 0 -300 -1 -330 -20 -18 -10 -40 -31 -50 -47 -17 -26 -18 -79
-18 -988 0 -909 1 -962 18 -988 10 -16 32 -37 50 -47 30 -19 52 -20 352 -20
302 0 322 1 353 20 18 11 41 34 52 52 19 32 20 52 20 536 0 533 1 542 48 596
23 26 90 56 126 56 48 0 115 -38 144 -83 l27 -41 5 -526 c6 -584 3 -560 73
-594 30 -14 78 -16 354 -16 298 0 320 1 350 20 69 41 68 35 71 540 4 542 -7
761 -43 910 -32 129 -114 301 -185 387 -166 203 -405 298 -692 272z m192 -290
c97 -15 180 -61 253 -138 74 -79 118 -164 154 -298 l27 -98 0 -510 1 -510
-135 0 -135 0 -5 455 c-6 502 -4 484 -73 592 -86 135 -220 208 -383 208 -135
0 -243 -47 -333 -146 -56 -61 -72 -88 -104 -173 -20 -53 -21 -81 -25 -498 l-4
-443 -134 0 -134 0 0 770 0 770 114 0 113 0 5 -69 c6 -77 29 -121 78 -146 69
-35 141 -10 200 70 98 133 306 199 520 164z"/>
<path d="M1069 3047 c-73 -49 -69 17 -69 -1032 0 -1049 -4 -983 69 -1032 34
-23 38 -23 356 -23 318 0 322 0 356 23 73 49 69 -17 69 1032 0 1049 4 983 -69
1032 -34 23 -38 23 -356 23 -318 0 -322 0 -356 -23z m491 -1037 l0 -770 -135
0 -135 0 0 770 0 770 135 0 135 0 0 -770z"/>
</g>
</svg>
